# xmcd
#
# Track frame offsets:
# 150
# 13384
# 30315
# 63059
# 79713
# 100215
# 131236
# 149715
# 173546
# 198901
#
# Disc length: 2874 seconds
#
#
# Revision: 0
# Processed by: cddbd v1.5.2PL0 Copyright (c) Steve Scherf et al.
# Submitted via: FreeRIP 2.945 
#
DISCID=820b380a
DTITLE=Ruben V - In His Hands
DYEAR=1996
DGENRE=Rock
TTITLE0=Life Aint Suppose To Be
TTITLE1=Babygirl
TTITLE2=What About Me
TTITLE3=Believe
TTITLE4=Dont Turn Away
TTITLE5=Troubles
TTITLE6=Roses
TTITLE7=In his hands
TTITLE8=Be My Heaven
TTITLE9=Promise Land
EXTD=
EXTT0=
EXTT1=
EXTT2=
EXTT3=
EXTT4=
EXTT5=
EXTT6=
EXTT7=
EXTT8=
EXTT9=
PLAYORDER=
